<svg xmlns="http://www.w3.org/2000/svg" width="854" height="150" viewBox="0 0 854 150">
<g font-family="'Segoe UI', Ubuntu, 'Helvetica Neue', sans-serif">
<g stroke="#1f6feb" stroke-opacity="0.3" stroke-width="1" fill="none">
<path d="M99 74 V104"/>
<path d="M263 74 V104"/>
<path d="M427 74 V104"/>
<path d="M591 74 V104"/>
<path d="M755 74 V104"/>
</g>
<g fill="#161b22" stroke="#21262d">
<rect x="28" y="30" width="142" height="44" rx="7"/>
<rect x="192" y="30" width="142" height="44" rx="7"/>
<rect x="356" y="30" width="142" height="44" rx="7"/>
<rect x="520" y="30" width="142" height="44" rx="7"/>
<rect x="684" y="30" width="142" height="44" rx="7"/>
</g><g fill="#e6edf3" font-size="11.5" text-anchor="middle">
<text x="99" y="50">Bank marketing</text><text x="99" y="64">CSV</text>
<text x="263" y="50">Pre-call fields</text><text x="263" y="64">only</text>
<text x="427" y="50">Chronological</text><text x="427" y="64">70/15/15 split</text>
<text x="591" y="50">Two models</text><text x="591" y="64">compared</text>
<text x="755" y="50">Top-20%</text><text x="755" y="64">call ranking</text>
</g>
<g stroke="#1f6feb" stroke-width="1.6" fill="none">
<path d="M173 52 H189"/>
<path d="M337 52 H353"/>
<path d="M501 52 H517"/>
<path d="M665 52 H681"/>
</g><g fill="#1f6feb">
<path d="M189 48 L197 52 L189 56 Z"/>
<path d="M353 48 L361 52 L353 56 Z"/>
<path d="M517 48 L525 52 L517 56 Z"/>
<path d="M681 48 L689 52 L681 56 Z"/>
</g>
<rect x="28" y="104" width="798" height="24" rx="6" fill="#161b22" stroke="#21262d"/>
<text x="427" y="120" font-size="10.5" fill="#7d8590" text-anchor="middle">Leakage boundary: duration and contemporaneous fields excluded - historical public data</text>
</g></svg>